<svg xmlns="http://www.w3.org/2000/svg" width="1200" height="675" viewBox="0 0 1200 675" role="img" aria-labelledby="title desc">
  <title id="title">CreatorFlow AI interface preview</title>
  <desc id="desc">Dark purple CreatorFlow AI hero with a creative brief form and multi-agent content workspace.</desc>
  <defs>
    <linearGradient id="hero" x1="0" x2="1" y1="0" y2="1">
      <stop offset="0" stop-color="#17131f"/>
      <stop offset="1" stop-color="#362765"/>
    </linearGradient>
    <linearGradient id="button" x1="0" x2="1">
      <stop offset="0" stop-color="#775cf1"/>
      <stop offset="1" stop-color="#5940cf"/>
    </linearGradient>
    <filter id="shadow" x="-20%" y="-20%" width="140%" height="160%">
      <feDropShadow dx="0" dy="12" stdDeviation="16" flood-color="#211836" flood-opacity=".16"/>
    </filter>
  </defs>

  <rect width="1200" height="675" fill="#f7f6fa"/>
  <rect width="1200" height="310" fill="url(#hero)"/>
  <circle cx="930" cy="90" r="220" fill="#7057e9" opacity=".09"/>

  <rect x="56" y="30" width="36" height="36" rx="11" fill="#c9f36a"/>
  <text x="74" y="53" text-anchor="middle" font-family="Arial" font-size="11" font-weight="700" fill="#211a31">CF</text>
  <text x="104" y="53" font-family="Arial" font-size="14" font-weight="700" fill="#fff">CreatorFlow AI</text>
  <rect x="1003" y="34" width="141" height="26" rx="13" fill="#ffffff" opacity=".08"/>
  <circle cx="1020" cy="47" r="4" fill="#c9f36a"/>
  <text x="1032" y="51" font-family="Arial" font-size="9" fill="#c8c1d3">Ollama · Local model</text>

  <rect x="56" y="92" width="218" height="24" rx="12" fill="#c9f36a" opacity=".1"/>
  <text x="69" y="108" font-family="Arial" font-size="9" font-weight="700" letter-spacing="1" fill="#dff9a7">✦ MULTI-AGENT CONTENT STUDIO</text>
  <text x="56" y="158" font-family="Arial" font-size="42" font-weight="700" fill="#fff">One idea. A complete</text>
  <text x="56" y="205" font-family="Arial" font-size="42" font-weight="700" fill="#d6cfff">content system.</text>
  <text x="56" y="236" font-family="Arial" font-size="13" fill="#aaa3ba">Strategy, script, SEO, thumbnails, Shorts, and review—coordinated in one flow.</text>

  <g transform="translate(755 80)" filter="url(#shadow)">
    <rect width="350" height="190" rx="18" fill="#211a31" stroke="#ffffff" stroke-opacity=".14"/>
    <text x="18" y="27" font-family="Arial" font-size="10" font-weight="700" fill="#ddd8e7">Creator workflow</text>
    <circle cx="315" cy="23" r="3" fill="#c9f36a"/>
    <text x="323" y="27" font-family="Arial" font-size="8" fill="#aaa4b8">LIVE</text>
    <rect x="17" y="43" width="316" height="45" rx="11" fill="#c9f36a" opacity=".09"/>
    <rect x="29" y="53" width="26" height="26" rx="8" fill="#c9f36a"/>
    <text x="42" y="70" text-anchor="middle" font-family="Arial" font-size="8" fill="#211a31">▶</text>
    <text x="67" y="62" font-family="Arial" font-size="7" fill="#777083">CURRENT BRIEF</text>
    <text x="67" y="77" font-family="Arial" font-size="10" font-weight="700" fill="#f6f3fb">Docker vs Kubernetes</text>
    <g font-family="Arial">
      <rect x="17" y="98" width="316" height="26" rx="8" fill="#fff" opacity=".04"/>
      <text x="30" y="115" font-size="8" fill="#c8befc">01</text>
      <text x="56" y="115" font-size="9" font-weight="700" fill="#ddd8e7">Topic Agent</text>
      <text x="307" y="115" font-size="9" fill="#c9f36a">✓</text>
      <rect x="17" y="132" width="316" height="26" rx="8" fill="#fff" opacity=".04"/>
      <text x="30" y="149" font-size="8" fill="#c8befc">02</text>
      <text x="56" y="149" font-size="9" font-weight="700" fill="#ddd8e7">Script Agent</text>
      <text x="307" y="149" font-size="9" fill="#c9f36a">✓</text>
      <text x="18" y="177" font-size="8" fill="#817a8e">8 agents</text>
      <text x="286" y="177" font-size="8" fill="#817a8e">8.7 score</text>
    </g>
  </g>

  <g transform="translate(52 334)" filter="url(#shadow)">
    <rect width="355" height="295" rx="18" fill="#fff" stroke="#e6e3ed"/>
    <rect x="22" y="22" width="40" height="40" rx="12" fill="#eeeaff"/>
    <text x="42" y="47" text-anchor="middle" font-family="Arial" font-size="10" font-weight="700" fill="#4c35ba">01</text>
    <text x="76" y="35" font-family="Arial" font-size="8" font-weight="700" fill="#898296">CREATIVE BRIEF</text>
    <text x="76" y="55" font-family="Arial" font-size="18" font-weight="700" fill="#18171f">Shape your video</text>
    <text x="22" y="91" font-family="Arial" font-size="8" font-weight="700" fill="#413e49">TOPIC</text>
    <rect x="22" y="101" width="311" height="48" rx="9" fill="#fbfafd" stroke="#dfdce7"/>
    <text x="34" y="128" font-family="Arial" font-size="11" fill="#24212b">Docker vs Kubernetes</text>
    <text x="22" y="177" font-family="Arial" font-size="8" font-weight="700" fill="#413e49">AUDIENCE</text>
    <text x="183" y="177" font-family="Arial" font-size="8" font-weight="700" fill="#413e49">TONE</text>
    <rect x="22" y="187" width="145" height="34" rx="8" fill="#fbfafd" stroke="#dfdce7"/>
    <rect x="183" y="187" width="150" height="34" rx="8" fill="#fbfafd" stroke="#dfdce7"/>
    <text x="34" y="208" font-family="Arial" font-size="10" fill="#55505e">Beginners</text>
    <text x="195" y="208" font-family="Arial" font-size="10" fill="#55505e">Simple</text>
    <rect x="22" y="241" width="311" height="39" rx="10" fill="url(#button)"/>
    <text x="38" y="265" font-family="Arial" font-size="10" font-weight="700" fill="#c9f36a">✦</text>
    <text x="55" y="265" font-family="Arial" font-size="10" font-weight="700" fill="#fff">Generate content package</text>
    <text x="306" y="265" font-family="Arial" font-size="16" fill="#fff">→</text>
  </g>

  <g transform="translate(432 334)" filter="url(#shadow)">
    <rect width="716" height="132" rx="18" fill="#fff" stroke="#e6e3ed"/>
    <rect x="24" y="24" width="38" height="38" rx="11" fill="#eeeaff"/>
    <text x="43" y="48" text-anchor="middle" font-family="Arial" font-size="13" font-weight="700" fill="#4c35ba">Aa</text>
    <text x="76" y="37" font-family="Arial" font-size="8" font-weight="700" fill="#898296">DISCOVERY</text>
    <text x="76" y="58" font-family="Arial" font-size="18" font-weight="700" fill="#211e29">Title Ideas</text>
    <rect x="585" y="26" width="48" height="24" rx="7" fill="#fff" stroke="#e0dced"/>
    <text x="609" y="42" text-anchor="middle" font-family="Arial" font-size="8" fill="#6a6276">Copy</text>
    <rect x="640" y="26" width="59" height="24" rx="7" fill="#eeeaff"/>
    <text x="670" y="42" text-anchor="middle" font-family="Arial" font-size="8" fill="#4c35ba">Regenerate</text>
    <rect x="24" y="79" width="320" height="34" rx="9" fill="#fbfafd" stroke="#e9e6ef"/>
    <rect x="354" y="79" width="345" height="34" rx="9" fill="#fbfafd" stroke="#e9e6ef"/>
    <text x="38" y="101" font-family="Arial" font-size="9" fill="#5f5a67">01  Docker vs Kubernetes Explained Simply</text>
    <text x="368" y="101" font-family="Arial" font-size="9" fill="#5f5a67">02  A Beginner's Guide to Containers</text>
  </g>

  <g transform="translate(432 482)" filter="url(#shadow)">
    <rect width="716" height="147" rx="18" fill="#fff" stroke="#e6e3ed"/>
    <rect x="24" y="22" width="38" height="38" rx="11" fill="#eeeaff"/>
    <text x="43" y="47" text-anchor="middle" font-family="Arial" font-size="14" font-weight="700" fill="#4c35ba">◇</text>
    <text x="76" y="35" font-family="Arial" font-size="8" font-weight="700" fill="#898296">VISUAL HOOK</text>
    <text x="76" y="56" font-family="Arial" font-size="18" font-weight="700" fill="#211e29">Thumbnail Text</text>
    <rect x="24" y="76" width="120" height="51" rx="10" fill="#574294"/>
    <rect x="154" y="76" width="120" height="51" rx="10" fill="#ef6b4e"/>
    <rect x="284" y="76" width="120" height="51" rx="10" fill="#c9f36a"/>
    <rect x="414" y="76" width="120" height="51" rx="10" fill="#126a78"/>
    <rect x="544" y="76" width="155" height="51" rx="10" fill="#5e45d6"/>
    <g font-family="Arial" font-size="8" font-weight="700">
      <text x="34" y="109" fill="#fff">DOCKER VS K8S</text>
      <text x="164" y="109" fill="#fff">WHICH ONE WINS?</text>
      <text x="294" y="109" fill="#201d26">MADE SIMPLE</text>
      <text x="424" y="109" fill="#fff">CHOOSE RIGHT</text>
      <text x="554" y="109" fill="#fff">BEGINNER GUIDE</text>
    </g>
  </g>
</svg>
